<?xml version="1.0" encoding="UTF-8" standalone="no"?>
<svg
   xmlns:dc="http://purl.org/dc/elements/1.1/"
   xmlns:cc="http://creativecommons.org/ns#"
   xmlns:rdf="http://www.w3.org/1999/02/22-rdf-syntax-ns#"
   xmlns:svg="http://www.w3.org/2000/svg"
   xmlns="http://www.w3.org/2000/svg"
   viewBox="0 0 377.95279 170.0788"
   height="170.0788"
   width="377.95279"
   xml:space="preserve"
   id="svg2"
   version="1.1"><metadata
     id="metadata8"><rdf:RDF><cc:Work
         rdf:about=""><dc:format>image/svg+xml</dc:format><dc:type
           rdf:resource="http://purl.org/dc/dcmitype/StillImage" /></cc:Work></rdf:RDF></metadata><defs
     id="defs6" /><g
     transform="matrix(1.3333333,0,0,-1.3333333,0,170.0788)"
     id="g10"><g
       id="g12"><path
         id="path14"
         style="fill:#231f20;fill-opacity:1;fill-rule:nonzero;stroke:none"
         d="m 240.4732,88.2315 c -2.395,2.1724 -5.9596,3.4534 -9.3005,3.3414 -2.73,-0.1111 -5.7364,-1.0026 -8.1314,-2.8964 v 2.0611 h -6.6824 V 60.6637 h 7.6288 v 13.0881 c 0,2.0608 0.0559,4.1213 0.334,5.4578 0.335,1.6705 1.1146,3.0065 2.2286,3.843 1.002,0.7231 2.1713,1.114 3.564,1.169 2.0602,0 3.6754,-0.557 4.7335,-1.6716 1.5594,-1.5582 2.0047,-4.1193 2.0047,-6.8488 V 60.6637 h 7.6856 v 15.0375 c 0,5.2347 -0.502,9.2443 -4.0649,12.5303 z M 202.5686,60.6637 h 7.5736 v 30.0739 h -7.5736 z M 189.3917,74.698 c 0,-0.2783 -0.0549,-1.3924 -0.3894,-2.6166 -0.946,-3.6202 -4.7892,-5.1795 -7.9631,-5.2906 -2.4509,-0.1114 -4.066,1.4468 -3.9538,3.2298 0.11,2.3941 3.5079,3.0067 6.7383,3.6201 z m -12.0279,7.1853 c 0.1658,0.2772 0.3895,0.5553 0.612,0.7798 1.169,1.3921 2.7845,1.8368 4.7333,1.8368 1.559,0.0562 3.0637,-0.2222 4.2885,-0.9467 1.1132,-0.6126 1.9497,-1.6152 2.2278,-2.7845 l -4.8459,-0.6681 c -4.2871,-0.6679 -6.6262,-0.724 -9.9677,-2.5059 -2.8406,-1.671 -4.8461,-4.8455 -4.8461,-8.0761 0,-2.6167 0.7798,-4.1208 2.3391,-6.2927 1.6143,-1.893 4.6786,-3.3412 7.6303,-3.3412 2.283,0 4.9006,0.5567 7.0172,1.8377 1.3362,0.7804 3.1751,2.4503 3.7318,4.0649 v -5.1236 h 6.626 v 18.8799 c 0,1.8379 -0.4439,4.0648 -1.6138,6.0145 -2.4508,4.1213 -6.906,5.9596 -12.4194,5.9596 -4.9572,0 -9.0785,-1.6158 -11.8072,-5.4581 -0.2236,-0.2793 -0.4459,-0.6687 -0.6131,-0.891 z m -42.56,2.1146 c -0.445,0.8924 -1.0029,1.7277 -1.671,2.5628 -2.7845,3.2859 -7.0727,5.0122 -11.5276,5.0122 -4.2886,0 -8.578,-1.5593 -11.4733,-5.0122 -2.5058,-3.0634 -3.6754,-6.7946 -3.6754,-10.8595 0,-4.0655 1.1696,-7.7975 3.6754,-10.804 2.7845,-3.3417 7.0736,-5.1244 11.4733,-5.0125 4.3991,-0.1119 8.7431,1.7266 11.5276,5.0125 0.6681,0.779 1.1696,1.6152 1.671,2.4494 l -7.1285,3.064 c -0.167,-0.3342 -0.3339,-0.6123 -0.5565,-0.9473 -1.2259,-1.6705 -3.2865,-2.5061 -5.5136,-2.5061 -2.1728,0 -4.2333,0.8356 -5.4584,2.5061 -1.2804,1.671 -1.6713,3.9535 -1.7263,6.2379 0.055,2.283 0.4459,4.5669 1.7263,6.2368 1.2251,1.6704 3.2856,2.5619 5.4584,2.5619 2.2271,0 4.2877,-0.8915 5.5136,-2.5619 0.2226,-0.2784 0.4445,-0.6679 0.6126,-1.0021 z M 94.8396,90.7376 V 77.65 c 0,-2.0605 -0.0561,-4.1207 -0.3348,-5.4578 -0.3345,-1.6705 -1.114,-3.0073 -2.228,-3.8424 -1.0012,-0.7242 -2.1714,-1.1137 -3.564,-1.1695 -2.0608,0 -3.6754,0.5564 -4.7339,1.671 -1.5602,1.5593 -2.0049,4.121 -2.0049,6.8499 V 90.7376 H 74.2884 V 75.7012 c 0,-5.235 0.5006,-9.2449 4.0655,-12.5306 2.3958,-2.1719 5.9598,-3.4543 9.3016,-3.3417 2.7286,0.112 5.7353,1.002 8.1303,2.8959 v -2.0611 h 6.6835 v 30.0739 z m 139.1921,-51.7901 0.8692,3.1977 c 0.6134,-0.5335 1.2832,-0.9416 2.0168,-1.2299 0.7328,-0.2838 1.4698,-0.4295 2.211,-0.4295 0.5244,0 0.9264,0.0848 1.1971,0.2534 0.2778,0.1679 0.4133,0.4116 0.4133,0.7319 0,0.5262 -0.5519,0.919 -1.658,1.1784 -0.3608,0.0848 -0.6537,0.161 -0.8708,0.2203 -1.2529,0.3455 -2.1583,0.7985 -2.7275,1.3595 -0.5649,0.5564 -0.8495,1.2849 -0.8495,2.1753 0,1.1537 0.4328,2.0718 1.2977,2.7606 0.8657,0.6888 2.0355,1.0333 3.5138,1.0333 0.7614,0 1.5349,-0.0871 2.3207,-0.2642 0.7846,-0.1755 1.59,-0.4482 2.4123,-0.8167 l -0.8705,-2.8857 c -0.5516,0.3768 -1.1174,0.665 -1.69,0.8615 -0.5741,0.197 -1.1424,0.2931 -1.7153,0.2931 -0.4771,0 -0.8368,-0.0765 -1.0811,-0.2248 -0.2452,-0.148 -0.3648,-0.3634 -0.3648,-0.6446 0,-0.4209 0.5479,-0.7775 1.6466,-1.0698 0.2517,-0.0686 0.4397,-0.121 0.5644,-0.1525 1.4468,-0.4133 2.4522,-0.9025 3.0212,-1.4584 0.5652,-0.5616 0.8498,-1.319 0.8498,-2.272 0,-1.2107 -0.4649,-2.1915 -1.3992,-2.9373 -0.9286,-0.7491 -2.1637,-1.1213 -3.6941,-1.1213 -1.0412,0 -2.0078,0.1196 -2.9004,0.3557 -0.8946,0.2412 -1.7317,0.6015 -2.5127,1.086 z m -1.2977,4.9124 c 0,-0.8532 -0.1686,-1.6665 -0.5008,-2.4313 -0.3328,-0.7696 -0.8124,-1.4587 -1.4502,-2.0676 -0.6412,-0.6091 -1.3587,-1.0749 -2.1515,-1.3875 -0.798,-0.3124 -1.639,-0.4677 -2.5328,-0.4677 -0.9099,0 -1.7595,0.1553 -2.5523,0.4677 -0.7974,0.3126 -1.5069,0.7784 -2.1319,1.3875 -0.6288,0.5956 -1.1056,1.2782 -1.4338,2.0467 -0.3285,0.7732 -0.493,1.5913 -0.493,2.4522 0,0.8657 0.1645,1.6829 0.4882,2.4517 0.3254,0.7656 0.8019,1.4559 1.4386,2.0684 0.6173,0.6004 1.3229,1.0579 2.1203,1.3626 0.7925,0.3042 1.6463,0.4559 2.5639,0.4559 0.9176,0 1.7714,-0.1517 2.5605,-0.4559 0.7889,-0.3047 1.4984,-0.7622 2.1238,-1.3626 0.6454,-0.621 1.1299,-1.3138 1.4587,-2.0795 0.3279,-0.765 0.4923,-1.5834 0.4923,-2.4406 z m -4.1592,0 c 0,0.8819 -0.2237,1.5795 -0.6699,2.088 -0.4447,0.5088 -1.0488,0.7656 -1.8062,0.7656 -0.7648,0 -1.3714,-0.2568 -1.8153,-0.7656 -0.4405,-0.5085 -0.6608,-1.2061 -0.6608,-2.088 0,-0.8853 0.2203,-1.5823 0.6574,-2.0874 0.4363,-0.5046 1.0454,-0.7572 1.8187,-0.7572 0.7651,0 1.3706,0.2526 1.8153,0.7572 0.4405,0.5051 0.6608,1.2021 0.6608,2.0874 z m -21.1527,-4.9124 0.8705,3.1977 c 0.612,-0.5335 1.2821,-0.9416 2.0154,-1.2299 0.7331,-0.2838 1.4698,-0.4295 2.2113,-0.4295 0.5244,0 0.9264,0.0848 1.1977,0.2534 0.2766,0.1679 0.4127,0.4116 0.4127,0.7319 0,0.5262 -0.5519,0.919 -1.6583,1.1784 -0.3608,0.0848 -0.6536,0.161 -0.8688,0.2203 -1.2546,0.3455 -2.16,0.7985 -2.7295,1.3595 -0.5649,0.5564 -0.8498,1.2849 -0.8498,2.1753 0,1.1537 0.434,2.0718 1.298,2.7606 0.866,0.6888 2.0356,1.0333 3.5152,1.0333 0.7603,0 1.5336,-0.0871 2.3196,-0.2642 0.7852,-0.1755 1.59,-0.4482 2.4123,-0.8167 l -0.8699,-2.8857 c -0.5522,0.3768 -1.118,0.665 -1.6909,0.8615 -0.5732,0.197 -1.1427,0.2931 -1.715,0.2931 -0.477,0 -0.8373,-0.0765 -1.0811,-0.2248 -0.2455,-0.148 -0.3651,-0.3634 -0.3651,-0.6446 0,-0.4209 0.5482,-0.7775 1.6469,-1.0698 0.2515,-0.0686 0.4397,-0.121 0.5644,-0.1525 1.4468,-0.4133 2.4523,-0.9025 3.0212,-1.4584 0.5649,-0.5616 0.8498,-1.319 0.8498,-2.272 0,-1.2107 -0.4652,-2.1915 -1.3986,-2.9373 -0.9295,-0.7491 -2.1643,-1.1213 -3.6936,-1.1213 -1.0425,0 -2.0089,0.1196 -2.9021,0.3557 -0.8926,0.2412 -1.7311,0.6015 -2.5123,1.086 z m -11.632,0 0.87,3.1977 c 0.6125,-0.5335 1.2821,-0.9416 2.016,-1.2299 0.7324,-0.2838 1.4697,-0.4295 2.2107,-0.4295 0.5244,0 0.9258,0.0848 1.1974,0.2534 0.2775,0.1679 0.413,0.4116 0.413,0.7319 0,0.5262 -0.5522,0.919 -1.6577,1.1784 -0.3609,0.0848 -0.654,0.161 -0.87,0.2203 -1.2538,0.3455 -2.1594,0.7985 -2.7283,1.3595 -0.5653,0.5564 -0.8493,1.2849 -0.8493,2.1753 0,1.1537 0.4323,2.0718 1.298,2.7606 0.866,0.6888 2.035,1.0333 3.5144,1.0333 0.76,0 1.5335,-0.0871 2.3196,-0.2642 0.7846,-0.1755 1.5896,-0.4482 2.4125,-0.8167 l -0.8708,-2.8857 c -0.553,0.3768 -1.1174,0.665 -1.69,0.8615 -0.574,0.197 -1.1432,0.2931 -1.7152,0.2931 -0.4768,0 -0.8371,-0.0765 -1.0817,-0.2248 -0.2449,-0.148 -0.3646,-0.3634 -0.3646,-0.6446 0,-0.4209 0.5485,-0.7775 1.6467,-1.0698 0.252,-0.0686 0.4402,-0.121 0.5644,-0.1525 1.4462,-0.4133 2.4522,-0.9025 3.0217,-1.4584 0.5655,-0.5616 0.8495,-1.319 0.8495,-2.272 0,-1.2107 -0.4657,-2.1915 -1.3986,-2.9373 -0.9292,-0.7491 -2.1634,-1.1213 -3.6935,-1.1213 -1.0426,0 -2.0089,0.1196 -2.9018,0.3557 -0.8944,0.2412 -1.7314,0.6015 -2.5124,1.086 z m -1.2934,4.1105 h -9.0168 c 0.009,-0.9128 0.245,-1.6183 0.7053,-2.1147 0.4654,-0.4972 1.1194,-0.7452 1.9641,-0.7452 0.637,0 1.1707,0.1202 1.6061,0.3563 0.4329,0.2407 0.7662,0.593 0.9944,1.0625 l 3.1453,-1.2666 c -0.377,-0.9099 -1.042,-1.6103 -1.9958,-2.1041 -0.9579,-0.493 -2.1269,-0.7404 -3.5136,-0.7404 -2.0678,0 -3.7264,0.5728 -4.9731,1.7189 -1.2495,1.15 -1.8748,2.6597 -1.8748,4.5394 0,1.8473 0.6253,3.3817 1.872,4.6037 1.2495,1.2218 2.8278,1.8307 4.7344,1.8307 1.9644,0 3.5147,-0.6166 4.6494,-1.8542 1.1336,-1.2384 1.7031,-2.9336 1.7031,-5.0856 z m -4.112,2.3561 c -0.0796,0.6744 -0.3362,1.2147 -0.7684,1.6232 -0.4369,0.4098 -0.9706,0.6134 -1.6076,0.6134 -0.6803,0 -1.226,-0.1846 -1.6307,-0.5573 -0.4,-0.3719 -0.6693,-0.9329 -0.8048,-1.6793 z m -18.8932,-7.4517 v 11.8517 h 3.9481 v -2.793 c 0.4076,1.0219 0.9607,1.7838 1.6657,2.2921 0.7064,0.5094 1.559,0.7659 2.5605,0.7659 0.1644,0 0.3328,-0.0048 0.5009,-0.0161 0.1686,-0.0125 0.3376,-0.0321 0.5096,-0.0559 l -0.4096,-3.799 c -0.2483,0.0845 -0.4957,0.1435 -0.7364,0.1851 -0.2443,0.0349 -0.4771,0.0553 -0.7047,0.0553 -1.0139,0 -1.7952,-0.3127 -2.3482,-0.9343 -0.5505,-0.6199 -0.8257,-1.5012 -0.8257,-2.6444 v -4.9074 z m -15.8703,-5.241 v 17.0927 h 3.8509 v -1.9956 c 0.532,0.8022 1.1301,1.3986 1.7949,1.7921 0.665,0.3923 1.402,0.5879 2.2158,0.5879 1.6665,0 2.9931,-0.569 3.979,-1.7059 0.9853,-1.1427 1.4774,-2.6844 1.4774,-4.6327 0,-1.8958 -0.4873,-3.4296 -1.4698,-4.5998 -0.981,-1.169 -2.2634,-1.7543 -3.8432,-1.7543 -1.0012,0 -1.8187,0.1839 -2.448,0.5524 -0.6287,0.3649 -1.1902,0.9692 -1.6826,1.8151 0.04,-0.2322 0.0686,-0.5208 0.0881,-0.8538 0.0205,-0.3362 0.0281,-0.7526 0.0281,-1.2461 v -5.052 z m 3.7103,11.1303 c 0,-0.921 0.2403,-1.6503 0.7211,-2.1833 0.481,-0.5334 1.146,-0.7979 1.9913,-0.7979 0.8459,0 1.5146,0.2645 2.0033,0.7979 0.489,0.533 0.7336,1.2623 0.7336,2.1833 0,0.9215 -0.2446,1.6514 -0.7294,2.1841 -0.4844,0.5323 -1.1542,0.7974 -2.0075,0.7974 -0.8453,0 -1.5103,-0.2651 -1.9913,-0.7974 -0.4808,-0.5327 -0.7211,-1.2626 -0.7211,-2.1841 z m -10.8301,-5.8893 v 6.471 c 0,1.0258 -0.1287,1.735 -0.381,2.1234 -0.2568,0.3923 -0.6976,0.589 -1.3266,0.589 -0.7812,0 -1.3263,-0.2727 -1.6344,-0.8166 -0.3048,-0.5449 -0.457,-1.6552 -0.457,-3.3432 v -5.0236 h -4.0385 v 6.471 c 0,1.0411 -0.1242,1.7543 -0.3767,2.1347 -0.2483,0.3861 -0.6854,0.5777 -1.3105,0.5777 -0.7818,0 -1.33,-0.2678 -1.6424,-0.8056 -0.3126,-0.5371 -0.4688,-1.6546 -0.4688,-3.3542 v -5.0236 h -4.0632 v 11.8517 h 4.1111 v -2.0594 c 0.4929,0.8374 1.0621,1.455 1.7067,1.8507 0.6449,0.3975 1.4071,0.5931 2.2794,0.5931 0.9618,0 1.7521,-0.1829 2.3646,-0.5565 0.6123,-0.3727 1.0534,-0.934 1.3227,-1.6789 0.4609,0.7531 1.021,1.3141 1.686,1.684 0.6656,0.3685 1.4508,0.5514 2.3482,0.5514 0.7141,0 1.3391,-0.1194 1.8718,-0.3558 0.5357,-0.2407 0.9853,-0.597 1.3456,-1.0774 0.2885,-0.3728 0.4929,-0.8147 0.6173,-1.3153 0.1208,-0.5009 0.1798,-1.3142 0.1798,-2.4398 v -0.2608 -6.787 z m -23.9167,0 V 55.152 h 4.7352 V 37.9624 Z m -68.802,29.143 c 4.2999,0 7.7848,3.4849 7.7848,7.7834 0,4.2996 -3.4849,7.7853 -7.7848,7.7853 -4.3004,0 -7.7836,-3.4857 -7.7836,-7.7853 0,-4.2985 3.4832,-7.7834 7.7836,-7.7834 z m 0,23.5012 c 8.6667,0 15.717,-7.0506 15.717,-15.7178 0,-8.6652 -7.0503,-15.7181 -15.717,-15.7181 -8.6666,0 -15.7181,7.0529 -15.7181,15.7181 v 15.7178 z" /><path
         id="path16"
         style="fill:#231f20;fill-opacity:1;fill-rule:nonzero;stroke:none"
         d="m 202.5686,94.915 h 7.5736 v 6.6835 h -7.5736 z" /><path
         id="path18"
         style="fill:#231f20;fill-opacity:1;fill-rule:nonzero;stroke:none"
         d="m 162.6262,88.2315 c -2.3947,2.1724 -5.9585,3.4534 -9.2999,3.3414 -2.7292,-0.1111 -5.7376,-1.0026 -8.1315,-2.8964 v 12.0855 h -6.6824 V 60.6637 h 7.6295 v 13.0881 c 0,2.0608 0.0555,4.1213 0.3339,5.4578 0.3339,1.6705 1.1129,3.0065 2.2274,3.843 1.0029,0.7231 2.1728,1.114 3.5643,1.169 2.0614,0 3.6768,-0.557 4.7342,-1.6716 1.559,-1.5582 2.0055,-4.1193 2.0055,-6.8488 V 60.6637 h 7.6839 v 15.0375 c 0,5.2347 -0.5006,9.2443 -4.0649,12.5303" /><path
         id="path20"
         style="fill:#fff200;fill-opacity:1;fill-rule:nonzero;stroke:none"
         d="m 56.0631,125.5388 c -8.6667,0 -15.7165,-7.0512 -15.7165,-15.7173 V 94.1043 h 15.7165 c 8.6666,0 15.7178,7.0514 15.7178,15.7172 0,8.6661 -7.0512,15.7173 -15.7178,15.7173" /><path
         id="path22"
         style="fill:#ec008c;fill-opacity:1;fill-rule:nonzero;stroke:none"
         d="m 14.9131,105.1897 c 0,-6.112 4.9731,-11.0854 11.0851,-11.0854 h 11.0863 v 11.0854 c 0,6.1135 -4.9725,11.0866 -11.0863,11.0866 -6.112,0 -11.0851,-4.9731 -11.0851,-11.0866" /><path
         id="path24"
         style="fill:#00adef;fill-opacity:1;fill-rule:nonzero;stroke:none"
         d="m 19.1976,81.6636 c 0,4.9314 4.0122,8.943 8.9442,8.943 h 8.9427 v -8.943 c 0,-4.9323 -4.0116,-8.9447 -8.9427,-8.9447 -4.932,0 -8.9442,4.0124 -8.9442,8.9447" /><path
         id="path26"
         style="fill:#231f20;fill-opacity:1;fill-rule:nonzero;stroke:none"
         d="m 37.9562,74.3644 c -0.0264,1.36 -0.2305,2.7306 -0.5981,4.0583 -0.059,-0.1664 -0.1219,-0.3305 -0.1888,-0.4923 -0.4952,-1.1957 -1.2232,-2.2731 -2.1232,-3.1723 -0.9008,-0.9 -1.9788,-1.6279 -3.1733,-2.1237 C 30.7723,72.1777 29.5696,71.9169 28.3127,71.8937 28.057,71.2001 27.6894,70.545 27.25,69.9477 25.8446,68.0746 23.5689,67.0031 21.7619,67.0031 H 8.9135 v 14.7223 h 9.4573 c 0.0085,1.2957 0.2727,2.5361 0.7421,3.6683 0.4958,1.1942 1.2228,2.2734 2.1234,3.174 0.644,0.644 1.3794,1.1993 2.1818,1.6446 -0.5264,0.051 -1.0581,0.0791 -1.5888,0.0791 H -0.1874 V 46.4122 c -0.0014,-0.0524 -0.0147,-0.1015 -0.0147,-0.1539 v -4.5471 h 4.5465 c 2.4811,0 4.4971,1.9993 4.5388,4.4708 h 0.0303 v 12.3225 h 12.9158 c 5.2864,0 10.105,2.543 12.9152,6.4248 2.0084,2.677 3.2797,6.0899 3.2117,9.4351" /><path
         id="path28"
         style="fill:#231f20;fill-opacity:1;fill-rule:nonzero;stroke:none"
         d="m 203.9389,19.7144 0.0249,0.0317 c 0.3251,1.0976 0.5017,2.0044 0.4881,2.5541 -0.0303,1.0199 -0.2245,2.0565 -0.6383,2.8879 -0.2625,0.4952 -0.599,0.8957 -1.0024,1.0973 -0.2996,0.1454 -0.7801,0.1723 -1.5372,0.034 -0.6863,-0.123 -1.5069,-0.381 -2.4406,-0.8209 -2.1546,-1.0219 -3.7953,-3.0104 -4.6279,-5.0607 -0.4286,-1.0406 -0.6579,-2.0906 -0.6244,-3.0308 0.0581,-0.9082 0.3438,-1.7147 0.898,-2.2521 0.2721,-0.2566 0.5933,-0.4496 1.0244,-0.5403 l 0.1177,-6e-4 c 1.9264,-0.2911 3.9206,0.8272 5.4975,2.0917 1.6126,1.2722 2.6901,2.6909 2.8309,2.9852 z m 1.44,-0.4232 c -0.0247,-0.0318 -0.0247,-0.0318 -0.0139,-0.0559 -0.6718,-2.1464 -1.8664,-5.038 -3.3528,-7.8882 -1.8919,-3.5963 -4.2186,-7.1819 -6.4599,-9.2228 -0.1347,-0.1347 -0.544,-0.0921 -0.9258,0.0618 -0.3458,0.1613 -0.5604,0.3778 -0.4153,0.4884 2.2062,2.033 4.5077,5.5871 6.3748,9.1516 0.7886,1.5404 1.5421,3.0731 2.1039,4.5111 l -0.2197,-0.2058 c -1.6866,-1.3671 -3.9651,-2.5475 -6.4292,-2.1892 -0.0357,-0.0079 -0.1281,0.0249 -0.2104,0.0335 -1.1435,0.1981 -1.9961,0.6179 -2.6183,1.2191 -0.6551,0.6735 -0.9836,1.5758 -1.0494,2.5875 -0.055,0.9884 0.1636,2.0625 0.6168,3.1348 0.8929,2.0892 2.5829,4.1417 4.7977,5.2027 1.0048,0.4559 1.8858,0.7529 2.643,0.8913 1.2656,0.2228 2.3165,0.0569 3.2621,-0.3952 0.8062,-0.4034 1.3824,-0.9887 1.7311,-1.6758 0.4351,-0.8793 0.6157,-1.9718 0.6568,-3.0152 0.0351,-0.5979 -0.1417,-1.505 -0.4915,-2.6337 z m 7.7887,7.6172 c 0.1531,0.0071 0.3742,-0.0501 0.6058,-0.1312 0.3815,-0.1536 0.5961,-0.3705 0.451,-0.4808 0.0107,-0.0241 -1.2634,-1.3541 -2.825,-3.431 -1.1294,-4.5094 -0.5959,-4.3934 -0.5959,-4.3934 0.2948,0.038 0.7478,-0.1004 1.0335,-0.3014 0.2393,-0.1845 0.2435,-0.3679 -0.0513,-0.4059 0,0 -1.9241,-0.2347 -2.0678,2.6819 -2.4282,-3.7922 -4.6795,-8.7565 -3.3401,-12.939 0.3762,-1.1815 0.9136,-1.8539 1.5267,-2.0886 0.5562,-0.1947 1.3462,-0.1284 2.2981,0.1845 1.1188,0.3751 2.2969,1.0525 3.4486,1.9613 4.0581,3.1204 8.0238,8.9578 8.3526,14.6353 0.2018,3.623 -0.7597,5.756 -2.2136,6.7292 -0.4465,0.2973 -0.9811,0.4444 -1.508,0.4875 -0.7155,0.0286 -1.5081,-0.1179 -2.2717,-0.4155 -1.0619,-0.4156 -2.0651,-1.1339 -2.8429,-2.0929 z M 204.9562,7.8032 c -1.6724,5.2685 2.1759,11.7119 5.0664,15.6045 0.0618,0.3821 0.1842,0.8036 0.2959,1.2489 0.6701,2.4092 2.4792,4.1978 4.4717,4.974 0.8946,0.3526 1.8655,0.5374 2.791,0.4756 1.1605,-0.0632 2.2402,-0.3807 3.2011,-1.04 1.6929,-1.158 2.8585,-3.4832 2.6507,-7.2658 -0.343,-5.7328 -4.3472,-11.6578 -8.4297,-14.8099 -1.2121,-0.9482 -2.4613,-1.6412 -3.6158,-2.0242 -1.2861,-0.438 -2.5918,-0.485 -3.8078,-0.0394 -1.2263,0.47 -2.1529,1.3997 -2.6235,2.8763" /><path
         id="path30"
         style="fill:#231f20;fill-opacity:1;fill-rule:nonzero;stroke:none"
         d="m 231.5684,14.7682 c -0.1292,-0.2151 -0.2454,-0.3866 -0.3486,-0.5148 -0.1035,-0.1284 -0.2067,-0.2565 -0.3098,-0.3846 -0.2583,-0.3481 -0.5103,-0.7084 -0.7555,-1.0814 -0.2455,-0.3731 -0.5102,-0.7359 -0.794,-1.0888 -0.4135,-0.5675 -0.8138,-1.0508 -1.201,-1.4497 -0.284,-0.3251 -0.5811,-0.5706 -0.8909,-0.7361 -0.2841,-0.1885 -0.5619,-0.2594 -0.8329,-0.2126 -0.2712,0.0465 -0.4971,0.2044 -0.6777,0.4725 -0.1293,0.2231 -0.2197,0.5352 -0.2713,0.9366 0,0.3013 0.0128,0.6114 0.0388,0.9312 0.0256,0.3194 0.0771,0.6366 0.1548,0.9521 0.2843,1.0917 0.7101,2.0863 1.2784,2.9832 0.5681,0.8966 1.317,1.6759 2.2468,2.3372 0.5165,0.3946 1.0715,0.6457 1.6656,0.7534 0.9553,0.1185 1.5494,-0.2806 1.7819,-1.1965 0.0516,-0.2645 0.1162,-0.4308 0.1936,-0.4986 0.2066,-0.2092 0.3101,-0.5051 0.3101,-0.8887 0,-0.1641 -0.007,-0.3364 -0.0196,-0.517 -0.0127,-0.18 -0.0192,-0.3523 -0.0192,-0.5167 0,-0.3011 0,-0.5817 0,-0.8419 0,-0.26 0.0255,-0.5361 0.0771,-0.828 0.1553,-1.3953 0.8654,-1.6773 2.1308,-0.8459 0.3614,0.2849 0.6842,0.5621 0.9683,0.8328 0.3101,0.3025 0.6199,0.612 0.9297,0.9281 0.3099,0.3163 0.6327,0.6279 0.9684,0.9354 0.3617,0.3665 0.7231,0.7401 1.0845,1.1203 0.3617,0.3804 0.6846,0.7883 0.9686,1.2228 0.155,0.2197 0.3356,0.4167 0.5423,0.5911 0.1031,0.1284 0.2259,0.1913 0.3679,0.1899 0.142,-0.0017 0.2648,-0.0343 0.3679,-0.0978 0.1809,-0.2407 0.1939,-0.4986 0.0389,-0.773 -0.0516,-0.0916 -0.142,-0.2174 -0.271,-0.3776 -0.7231,-0.843 -1.4528,-1.6733 -2.1889,-2.4911 -0.7359,-0.8181 -1.5171,-1.6027 -2.3434,-2.3547 -0.3615,-0.3121 -0.7232,-0.5763 -1.0846,-0.7923 -0.3617,-0.216 -0.7619,-0.3912 -1.201,-0.5256 -1.0069,-0.2644 -1.7558,0.0103 -2.2465,0.8252 -0.2066,0.3181 -0.3421,0.6497 -0.407,0.9938 -0.0644,0.3442 -0.1225,0.7033 -0.1744,1.0772 0,0.1369 -0.006,0.2727 -0.0189,0.4073 -0.0131,0.1347 -0.0326,0.309 -0.0582,0.5233 z m 0.0386,1.8961 c -0.2582,0.1721 -0.4519,0.2738 -0.5811,0.3056 -0.1293,0.0312 -0.3226,-0.0312 -0.5811,-0.1877 -0.6713,-0.3407 -1.2393,-0.8404 -1.7042,-1.4998 -0.3617,-0.5309 -0.6715,-1.0797 -0.9298,-1.6466 -0.2582,-0.5669 -0.4518,-1.1498 -0.5811,-1.7481 -0.0516,-0.1463 -0.0839,-0.2821 -0.0966,-0.408 -0.0131,-0.1252 0.006,-0.252 0.0578,-0.3795 0.0777,0.0689 0.1551,0.1173 0.2327,0.1448 0.0771,0.0275 0.142,0.0737 0.1936,0.1378 0.2067,0.229 0.413,0.4584 0.6197,0.6874 0.2066,0.229 0.413,0.4717 0.6199,0.7282 0.4388,0.5723 0.8652,1.1492 1.2782,1.7306 0.413,0.5814 0.8265,1.1698 1.2396,1.7648 0.0515,0.0641 0.0904,0.1256 0.1162,0.1851 0.0258,0.0593 0.0646,0.1214 0.1162,0.1854 z m 10.1877,0.5321 c 0.129,0.1873 0.239,0.3441 0.3294,0.47 0.0901,0.1261 0.1871,0.2531 0.2903,0.3812 0.5164,0.7509 1.0459,1.4899 1.5882,2.2181 0.5426,0.728 1.1492,1.4131 1.8207,2.0549 0.1293,0.1604 0.2968,0.3274 0.5034,0.5017 0.3359,0.2798 0.6523,0.3852 0.9494,0.3158 0.2968,-0.0695 0.5099,-0.2843 0.6389,-0.6441 0.0516,-0.2644 0.0777,-0.4648 0.0777,-0.6017 -0.0261,-0.224 -0.0389,-0.459 -0.0389,-0.7053 0,-0.2463 -0.0261,-0.4839 -0.0776,-0.7124 -0.0774,-0.5612 -0.1228,-1.1035 -0.1355,-1.6259 -0.0128,-0.5227 0.006,-1.0531 0.0581,-1.5911 0.0518,-0.2373 0.0969,-0.4686 0.1358,-0.6942 0.0385,-0.2259 0.0966,-0.4411 0.174,-0.646 0.2066,-0.4555 0.4521,-0.76 0.7362,-0.9139 0.284,-0.1539 0.6842,-0.1565 1.2007,-0.0082 0.3617,0.0927 0.7036,0.2233 1.0267,0.3912 0.3226,0.1681 0.6389,0.3622 0.9488,0.5828 0.4391,0.3257 0.8781,0.6516 1.3172,0.9779 0.4388,0.3257 0.8779,0.6792 1.317,1.0599 0.4646,0.4127 0.9167,0.8371 1.3558,1.2722 0.4391,0.4357 0.8779,0.8847 1.317,1.3476 0.0774,0.0688 0.1485,0.1363 0.2129,0.2026 0.0649,0.0669 0.1488,0.1367 0.252,0.2101 0.3614,0.3118 0.6457,0.3498 0.8521,0.1134 0.2327,-0.2588 0.2066,-0.565 -0.0774,-0.9173 -0.0774,-0.1239 -0.2194,-0.2866 -0.4261,-0.4881 -0.7749,-0.7152 -1.5431,-1.4432 -2.3048,-2.1836 -0.762,-0.7404 -1.5559,-1.4592 -2.3822,-2.1566 -0.904,-0.7387 -1.8077,-1.2991 -2.7117,-1.682 -0.5422,-0.2628 -1.0975,-0.4045 -1.6659,-0.4252 -0.7489,-0.0261 -1.3813,0.2287 -1.8981,0.765 -0.3353,0.4045 -0.5873,0.8516 -0.7551,1.3417 -0.1681,0.4895 -0.2906,1.0148 -0.368,1.5757 -0.1031,0.5565 -0.142,1.1243 -0.1162,1.7037 0.0258,0.5799 0.1035,1.1687 0.2325,1.7671 0.0258,0.1142 0.0453,0.2273 0.0581,0.339 0.0127,0.112 0.0323,0.2526 0.0581,0.4212 -0.1293,-0.0782 -0.2713,-0.1859 -0.4261,-0.3234 -0.2327,-0.2613 -0.4779,-0.5318 -0.7361,-0.8113 -0.2583,-0.2795 -0.4907,-0.5609 -0.6973,-0.845 -0.7229,-0.9524 -1.3879,-1.9352 -1.9948,-2.9486 -0.6069,-1.0136 -1.1815,-2.0483 -1.7237,-3.105 -0.1035,-0.2104 -0.1939,-0.4184 -0.2713,-0.624 -0.0774,-0.2055 -0.1678,-0.4135 -0.2713,-0.6241 -0.0516,-0.0641 -0.0904,-0.1395 -0.1159,-0.2265 -0.0261,-0.0868 -0.0649,-0.1622 -0.1165,-0.2262 -0.2322,-0.2886 -0.4777,-0.4014 -0.7356,-0.3388 -0.3359,0.0213 -0.5037,0.2237 -0.5037,0.6069 0,0.2191 0.0258,0.3878 0.0774,0.5069 0.2324,0.9181 0.4646,1.8226 0.6973,2.7136 0.2324,0.8909 0.4779,1.7977 0.7359,2.7204 0.1289,0.4889 0.3486,1.0352 0.6584,1.639 0.1035,0.2378 0.271,0.4736 0.5038,0.7072 0.2324,0.2339 0.4906,0.2942 0.7747,0.1814 0.2582,-0.1445 0.3486,-0.3747 0.271,-0.6899 -0.0516,-0.1735 -0.0967,-0.3393 -0.1355,-0.4969 -0.0389,-0.1576 -0.0839,-0.3235 -0.1355,-0.497 -0.0516,-0.2006 -0.1163,-0.3974 -0.1936,-0.5893 -0.0777,-0.1922 -0.1293,-0.441 -0.1551,-0.7466 z m 20.0265,0.9595 c -0.129,-0.2426 -0.2514,-0.47 -0.3677,-0.6831 -0.1165,-0.2126 -0.2392,-0.4264 -0.3679,-0.6415 -0.3617,-0.6132 -0.8266,-1.0942 -1.3946,-1.4434 -0.5423,-0.3175 -1.0588,-0.4453 -1.5495,-0.3836 -0.4906,0.0618 -0.8781,0.3405 -1.1622,0.8366 -0.0516,0.1 -0.0969,0.1944 -0.1357,0.2834 -0.0383,0.089 -0.0709,0.1993 -0.0967,0.3317 -0.1548,0.8206 -0.1743,1.6384 -0.0581,2.4536 0.1165,0.815 0.4195,1.6501 0.9105,2.5059 0.413,0.7591 0.9941,1.3844 1.743,1.8762 0.7747,0.5236 1.5106,0.6432 2.2079,0.3589 0.5681,-0.2257 0.8521,-0.6942 0.8521,-1.406 0,-0.1369 0,-0.2602 0,-0.3696 0,-0.1095 0.0261,-0.2282 0.0777,-0.3558 0.0516,-0.0728 0.0774,-0.1638 0.0774,-0.2732 0,-0.1097 0,-0.2328 0,-0.3697 -0.0258,-0.881 0.3744,-1.3422 1.2007,-1.3839 0.8266,-0.0147 1.6659,0.1783 2.518,0.5792 0.4388,0.1893 0.8521,0.4147 1.2393,0.6766 0.3875,0.2616 0.7623,0.576 1.1237,0.9428 0.2324,0.2608 0.4776,0.5108 0.7359,0.7492 0.2582,0.2384 0.5164,0.4904 0.7747,0.7563 0.2066,0.2018 0.3614,0.3393 0.4649,0.413 0.2324,0.1788 0.426,0.1865 0.5811,0.0229 0.1547,-0.1088 0.1936,-0.2795 0.1159,-0.5127 0,-0.0548 -0.0128,-0.1049 -0.0386,-0.1508 -0.0258,-0.0457 -0.0516,-0.0984 -0.0773,-0.1577 -0.0516,-0.064 -0.084,-0.1179 -0.097,-0.1612 -0.013,-0.0434 -0.0453,-0.0973 -0.0969,-0.1613 -0.5423,-0.6186 -1.0908,-1.2107 -1.6461,-1.7768 -0.5553,-0.5661 -1.1687,-1.0468 -1.8403,-1.4423 -1.0071,-0.5658 -1.9882,-0.9765 -2.9437,-1.2316 -0.904,-0.2458 -1.7173,-0.2427 -2.4404,0.0096 -0.0516,0.0182 -0.1032,0.0292 -0.1548,0.0335 -0.0516,0.0045 -0.1034,0.0292 -0.1553,0.0748 z m -0.7356,3.193 c -0.2066,0.2636 -0.394,0.4076 -0.5618,0.432 -0.1678,0.0243 -0.381,-0.0689 -0.6392,-0.2801 -0.2841,-0.2429 -0.5423,-0.5499 -0.7747,-0.9207 -0.5165,-0.997 -0.7101,-1.9905 -0.5809,-2.9798 0,-0.1097 0.0128,-0.2032 0.0383,-0.2809 0.0261,-0.0771 0.0649,-0.1658 0.1165,-0.2662 0.129,-0.36 0.3872,-0.3954 0.7747,-0.106 0.2064,0.1196 0.3745,0.2869 0.5035,0.502 0.1292,0.2424 0.2582,0.4916 0.3874,0.7478 0.1293,0.256 0.2452,0.5029 0.3487,0.741 0.1293,0.2421 0.1678,0.4958 0.1159,0.76 0,0.3013 0.0134,0.5842 0.0389,0.8486 0.0261,0.2651 0.1034,0.5324 0.2327,0.8023 z m 11.8531,-1.7949 c 0.1292,0.0785 0.2387,0.1598 0.3291,0.2446 0.0904,0.0847 0.1871,0.1638 0.2905,0.2372 2.2726,1.8905 4.7132,3.5785 7.3214,5.0639 0.2063,0.0921 0.3937,0.1879 0.5615,0.2865 0.1678,0.0992 0.3549,0.1945 0.5615,0.2866 0.3102,0.1383 0.6072,0.1786 0.891,0.1205 0.1808,-0.0221 0.2908,-0.1114 0.3294,-0.269 0.0388,-0.1571 -0.006,-0.3158 -0.1355,-0.476 -0.1551,-0.2471 -0.3615,-0.4351 -0.6197,-0.564 -0.1293,-0.1058 -0.2713,-0.1931 -0.4263,-0.2623 -0.1548,-0.0691 -0.2971,-0.1428 -0.4261,-0.2208 -1.3169,-0.7041 -2.6019,-1.4845 -3.8542,-2.3411 -1.2524,-0.8569 -2.4855,-1.7785 -3.6993,-2.7649 -0.1808,-0.1695 -0.3486,-0.3235 -0.5037,-0.4609 -0.155,-0.1375 -0.297,-0.273 -0.426,-0.4057 -0.0516,-0.2557 -0.0839,-0.4875 -0.097,-0.695 -0.0127,-0.2078 -0.0323,-0.4235 -0.0578,-0.6472 -0.2582,-1.881 -1.201,-3.4072 -2.8278,-4.5782 -0.2841,-0.1882 -0.5426,-0.3308 -0.7747,-0.4278 -0.2325,-0.0966 -0.4907,-0.1301 -0.775,-0.0992 -0.8779,0.1145 -1.1362,0.6293 -0.7745,1.5435 0.1032,0.2375 0.2194,0.4572 0.3487,0.6585 0.129,0.2012 0.2582,0.396 0.3872,0.5836 0.3101,0.4941 0.652,0.9601 1.0264,1.3972 0.3745,0.4377 0.7555,0.883 1.143,1.3369 0.1032,0.1006 0.2063,0.2083 0.3098,0.3228 0.1032,0.1145 0.2064,0.2223 0.3098,0.3232 0.0516,0.3104 0.0389,0.6026 -0.0388,0.8759 -0.0774,0.2735 -0.1678,0.5377 -0.271,0.7928 -0.1035,0.2551 -0.2066,0.4964 -0.3098,0.7243 -0.1035,0.2276 -0.2197,0.4663 -0.3487,0.7169 -0.3098,0.6284 -0.4518,1.3144 -0.4263,2.0582 0.0261,0.4156 0.11,0.8141 0.252,1.1954 0.142,0.3818 0.3291,0.7443 0.5618,1.0879 0.3614,0.4759 0.7294,0.9329 1.1038,1.3703 0.3745,0.4374 0.781,0.8464 1.22,1.2271 0.2844,0.2707 0.5877,0.5241 0.9105,0.7605 0.3226,0.2364 0.639,0.4788 0.9488,0.7265 0.2066,0.1469 0.3747,0.2594 0.5037,0.3376 0.1293,0.078 0.3101,0.1109 0.5423,0.0981 0.4133,0.0202 0.6845,-0.1221 0.8138,-0.4274 0.2064,-0.3734 0.1287,-0.7022 -0.2327,-0.9868 -0.0516,-0.064 -0.1097,-0.1085 -0.1744,-0.1343 -0.0643,-0.0253 -0.1224,-0.0701 -0.1743,-0.1341 -0.697,-0.4275 -1.3493,-0.9153 -1.9562,-1.4635 -0.6069,-0.548 -1.1815,-1.145 -1.7237,-1.7904 -0.129,-0.1605 -0.2387,-0.324 -0.3294,-0.4913 -0.0904,-0.1669 -0.1871,-0.3282 -0.2903,-0.4838 -0.2582,-0.43 -0.3228,-0.8796 -0.1936,-1.349 0.0774,-0.2325 0.1675,-0.4488 0.271,-0.6492 0.1293,-0.36 0.2713,-0.7242 0.4261,-1.0933 0.155,-0.3688 0.3228,-0.7557 0.5037,-1.1613 z m -1.8593,-3.9507 c -0.3098,-0.3024 -0.6006,-0.6222 -0.8716,-0.959 -0.2713,-0.3364 -0.5103,-0.7151 -0.7166,-1.1358 0.8263,0.5057 1.3555,1.2039 1.5882,2.0948" /></g></g></svg>